<svg xmlns="http://www.w3.org/2000/svg" xmlns:xlink="http://www.w3.org/1999/xlink" width="2000" zoomAndPan="magnify" viewBox="0 0 1500 565.499988" height="754" preserveAspectRatio="xMidYMid meet" version="1.0"><defs><g/><clipPath id="4b77b926b5"><path d="M 0.664062 26 L 1026 26 L 1026 340 L 0.664062 340 Z M 0.664062 26 " clip-rule="nonzero"/></clipPath><clipPath id="0d9ef23585"><path d="M 0.664062 12 L 197 12 L 197 225 L 0.664062 225 Z M 0.664062 12 " clip-rule="nonzero"/></clipPath><clipPath id="d9cfa5ea76"><rect x="0" width="1026" y="0" height="314"/></clipPath><clipPath id="9a3893e235"><rect x="0" width="1080" y="0" height="386"/></clipPath></defs><g clip-path="url(#4b77b926b5)"><g transform="matrix(1, 0, 0, 1, 0.000000000000000111, 26)"><g clip-path="url(#d9cfa5ea76)"><g clip-path="url(#0d9ef23585)"><g fill="#1b263b" fill-opacity="1"><g transform="translate(-4.46492, 224.35586)"><g><path d="M 42.515625 -31.421875 L 181.796875 -212.296875 L 187.34375 -212.296875 L 173.171875 -38.828125 C 172.753906 -32.253906 172.546875 -27.9375 172.546875 -25.875 C 172.546875 -12.320312 180.046875 -5.546875 195.046875 -5.546875 L 201.203125 -5.546875 L 199.671875 0 L 112.78125 0 L 114.3125 -5.546875 C 120.882812 -5.546875 126.070312 -6.109375 129.875 -7.234375 C 133.675781 -8.367188 136.65625 -10.734375 138.8125 -14.328125 C 140.96875 -17.921875 142.351562 -23.210938 142.96875 -30.203125 L 146.046875 -67.78125 L 84.125 -67.78125 L 61.625 -39.125 C 57.101562 -33.582031 54.019531 -29.164062 52.375 -25.875 C 50.738281 -22.59375 49.921875 -19.515625 49.921875 -16.640625 C 49.921875 -9.648438 55.363281 -5.953125 66.25 -5.546875 L 64.703125 0 L 4.3125 0 L 3.703125 -5.546875 C 16.429688 -5.753906 29.367188 -14.378906 42.515625 -31.421875 Z M 146.671875 -78.265625 L 153.453125 -157.765625 L 152.828125 -158.375 L 91.828125 -78.265625 Z M 146.671875 -78.265625 "/></g></g></g></g><g fill="#1b263b" fill-opacity="1"><g transform="translate(195.511452, 224.35586)"><g><path d="M 42.828125 -34.515625 C 41.390625 -29.578125 40.3125 -25.617188 39.59375 -22.640625 C 38.875 -19.660156 38.515625 -17.144531 38.515625 -15.09375 C 38.515625 -13.65625 38.875 -12.578125 39.59375 -11.859375 C 40.3125 -11.140625 40.976562 -10.78125 41.59375 -10.78125 C 44.0625 -10.78125 48.273438 -13.757812 54.234375 -19.71875 C 60.191406 -25.675781 63.890625 -29.890625 65.328125 -32.359375 L 70.25 -29.578125 C 63.675781 -20.535156 56.484375 -12.726562 48.671875 -6.15625 C 40.867188 0.414062 33.582031 3.703125 26.8125 3.703125 C 18.59375 3.703125 14.484375 -1.125 14.484375 -10.78125 C 14.484375 -14.6875 15.300781 -19.515625 16.9375 -25.265625 C 18.582031 -31.015625 19.71875 -34.816406 20.34375 -36.671875 L 64.09375 -188.875 C 65.320312 -193.601562 65.9375 -197.300781 65.9375 -199.96875 C 65.9375 -202.644531 65.007812 -204.800781 63.15625 -206.4375 C 61.3125 -208.082031 58.953125 -208.90625 56.078125 -208.90625 C 52.171875 -208.90625 48.679688 -208.597656 45.609375 -207.984375 L 45.609375 -213.84375 L 90.890625 -220.921875 L 96.140625 -220.921875 L 46.828125 -48.375 C 44.773438 -40.976562 43.441406 -36.359375 42.828125 -34.515625 Z M 42.828125 -34.515625 "/></g></g></g><g fill="#1b263b" fill-opacity="1"><g transform="translate(257.445588, 224.35586)"><g><path d="M 42.828125 -34.515625 C 41.390625 -29.578125 40.3125 -25.617188 39.59375 -22.640625 C 38.875 -19.660156 38.515625 -17.144531 38.515625 -15.09375 C 38.515625 -13.65625 38.875 -12.578125 39.59375 -11.859375 C 40.3125 -11.140625 40.976562 -10.78125 41.59375 -10.78125 C 44.0625 -10.78125 48.273438 -13.757812 54.234375 -19.71875 C 60.191406 -25.675781 63.890625 -29.890625 65.328125 -32.359375 L 70.25 -29.578125 C 63.675781 -20.535156 56.484375 -12.726562 48.671875 -6.15625 C 40.867188 0.414062 33.582031 3.703125 26.8125 3.703125 C 18.59375 3.703125 14.484375 -1.125 14.484375 -10.78125 C 14.484375 -14.6875 15.300781 -19.515625 16.9375 -25.265625 C 18.582031 -31.015625 19.71875 -34.816406 20.34375 -36.671875 L 64.09375 -188.875 C 65.320312 -193.601562 65.9375 -197.300781 65.9375 -199.96875 C 65.9375 -202.644531 65.007812 -204.800781 63.15625 -206.4375 C 61.3125 -208.082031 58.953125 -208.90625 56.078125 -208.90625 C 52.171875 -208.90625 48.679688 -208.597656 45.609375 -207.984375 L 45.609375 -213.84375 L 90.890625 -220.921875 L 96.140625 -220.921875 L 46.828125 -48.375 C 44.773438 -40.976562 43.441406 -36.359375 42.828125 -34.515625 Z M 42.828125 -34.515625 "/></g></g></g><g fill="#1b263b" fill-opacity="1"><g transform="translate(319.379724, 224.35586)"><g/></g></g><g fill="#1b263b" fill-opacity="1"><g transform="translate(374.843152, 224.35586)"><g><path d="M 73.328125 -202.4375 C 77.640625 -202.4375 81.335938 -200.894531 84.421875 -197.8125 C 87.503906 -194.726562 89.046875 -191.132812 89.046875 -187.03125 C 89.046875 -182.71875 87.503906 -179.019531 84.421875 -175.9375 C 81.335938 -172.851562 77.640625 -171.3125 73.328125 -171.3125 C 69.222656 -171.3125 65.628906 -172.851562 62.546875 -175.9375 C 59.460938 -179.019531 57.921875 -182.71875 57.921875 -187.03125 C 57.921875 -191.132812 59.460938 -194.726562 62.546875 -197.8125 C 65.628906 -200.894531 69.222656 -202.4375 73.328125 -202.4375 Z M 43.140625 -27.421875 C 41.492188 -22.078125 40.671875 -18.378906 40.671875 -16.328125 C 40.671875 -13.046875 42.414062 -11.40625 45.90625 -11.40625 C 48.375 -11.40625 51.816406 -13.300781 56.234375 -17.09375 C 60.648438 -20.894531 65.21875 -26.492188 69.9375 -33.890625 L 74.875 -30.8125 C 68.09375 -20.332031 60.488281 -11.957031 52.0625 -5.6875 C 43.644531 0.570312 35.945312 3.703125 28.96875 3.703125 C 24.851562 3.703125 21.71875 2.367188 19.5625 -0.296875 C 17.40625 -2.972656 16.328125 -6.570312 16.328125 -11.09375 C 16.328125 -14.375 16.941406 -18.175781 18.171875 -22.5 L 42.828125 -107.234375 C 44.265625 -112.367188 44.984375 -115.960938 44.984375 -118.015625 C 44.984375 -120.679688 44.054688 -123.039062 42.203125 -125.09375 C 40.359375 -127.15625 37.585938 -128.1875 33.890625 -128.1875 C 32.453125 -128.1875 28.550781 -127.671875 22.1875 -126.640625 L 23.71875 -131.875 L 70.5625 -140.8125 L 75.796875 -140.8125 Z M 43.140625 -27.421875 "/></g></g></g><g fill="#1b263b" fill-opacity="1"><g transform="translate(436.777288, 224.35586)"><g><path d="M 48.375 -69.328125 C 61.3125 -90.691406 74.351562 -107.945312 87.5 -121.09375 C 100.65625 -134.238281 112.878906 -140.8125 124.171875 -140.8125 C 128.898438 -140.8125 132.851562 -139.21875 136.03125 -136.03125 C 139.21875 -132.851562 140.8125 -128.285156 140.8125 -122.328125 C 140.8125 -116.773438 139.375 -108.765625 136.5 -98.296875 L 117.09375 -31.734375 C 115.238281 -25.160156 114.3125 -20.640625 114.3125 -18.171875 C 114.3125 -16.328125 114.773438 -14.992188 115.703125 -14.171875 C 116.628906 -13.347656 117.601562 -12.9375 118.625 -12.9375 C 121.09375 -12.9375 124.894531 -15.609375 130.03125 -20.953125 C 135.164062 -26.296875 138.65625 -30.503906 140.5 -33.578125 L 145.125 -29.890625 C 138.757812 -21.054688 131.617188 -13.25 123.703125 -6.46875 C 115.796875 0.3125 108.351562 3.703125 101.375 3.703125 C 98.082031 3.703125 95.304688 2.421875 93.046875 -0.140625 C 90.796875 -2.710938 89.671875 -6.15625 89.671875 -10.46875 C 89.671875 -14.988281 90.796875 -21.050781 93.046875 -28.65625 L 114 -102.296875 C 114.207031 -102.910156 114.722656 -104.601562 115.546875 -107.375 C 116.367188 -110.15625 116.78125 -112.878906 116.78125 -115.546875 C 116.78125 -118.210938 116.0625 -120.265625 114.625 -121.703125 C 113.1875 -123.140625 111.644531 -123.859375 110 -123.859375 C 105.269531 -123.859375 98.4375 -119.851562 89.5 -111.84375 C 80.570312 -103.832031 71.894531 -93.769531 63.46875 -81.65625 C 56.28125 -71.59375 50.476562 -62.296875 46.0625 -53.765625 C 41.644531 -45.242188 37.691406 -34.921875 34.203125 -22.796875 C 31.535156 -13.960938 29.378906 -6.363281 27.734375 0 L 4 0 L 33.28125 -102.609375 C 33.476562 -103.222656 34.191406 -105.835938 35.421875 -110.453125 C 36.660156 -115.078125 37.28125 -118.421875 37.28125 -120.484375 C 37.28125 -122.941406 36.40625 -124.835938 34.65625 -126.171875 C 32.914062 -127.515625 30.609375 -128.1875 27.734375 -128.1875 C 24.859375 -128.1875 20.75 -127.976562 15.40625 -127.5625 L 15.40625 -133.109375 L 62.546875 -140.8125 L 68.09375 -140.8125 L 47.765625 -69.9375 Z M 48.375 -69.328125 "/></g></g></g><g fill="#1b263b" fill-opacity="1"><g transform="translate(569.273231, 224.35586)"><g/></g></g><g fill="#1b263b" fill-opacity="1"><g transform="translate(624.73666, 224.35586)"><g><path d="M 99.21875 -140.8125 C 106.613281 -140.8125 113.597656 -138.859375 120.171875 -134.953125 C 126.742188 -131.054688 132.03125 -125.5625 136.03125 -118.46875 C 140.039062 -111.382812 142.046875 -103.320312 142.046875 -94.28125 C 142.046875 -76.207031 137.421875 -59.671875 128.171875 -44.671875 C 118.929688 -29.679688 107.378906 -17.867188 93.515625 -9.234375 C 79.648438 -0.609375 66.453125 3.703125 53.921875 3.703125 C 43.859375 3.703125 35.640625 1.082031 29.265625 -4.15625 C 22.898438 -9.394531 18.28125 -15.710938 15.40625 -23.109375 C 12.53125 -30.503906 11.09375 -37.488281 11.09375 -44.0625 C 11.09375 -58.03125 15.40625 -72.613281 24.03125 -87.8125 C 32.65625 -103.007812 43.796875 -115.640625 57.453125 -125.703125 C 71.117188 -135.773438 85.039062 -140.8125 99.21875 -140.8125 Z M 36.359375 -32.359375 C 36.359375 -24.140625 38.515625 -17.359375 42.828125 -12.015625 C 47.140625 -6.671875 52.6875 -4 59.46875 -4 C 65.832031 -4 71.835938 -5.898438 77.484375 -9.703125 C 83.140625 -13.503906 87.921875 -18.691406 91.828125 -25.265625 C 99.421875 -37.585938 105.628906 -51.296875 110.453125 -66.390625 C 115.285156 -81.492188 117.703125 -94.078125 117.703125 -104.140625 C 117.703125 -124.273438 110.101562 -134.34375 94.90625 -134.34375 C 84.019531 -134.34375 74.109375 -128.332031 65.171875 -116.3125 C 56.234375 -104.300781 49.195312 -90.128906 44.0625 -73.796875 C 38.925781 -57.460938 36.359375 -43.648438 36.359375 -32.359375 Z M 36.359375 -32.359375 "/></g></g></g><g fill="#1b263b" fill-opacity="1"><g transform="translate(757.232602, 224.35586)"><g><path d="M 48.375 -69.328125 C 61.3125 -90.691406 74.351562 -107.945312 87.5 -121.09375 C 100.65625 -134.238281 112.878906 -140.8125 124.171875 -140.8125 C 128.898438 -140.8125 132.851562 -139.21875 136.03125 -136.03125 C 139.21875 -132.851562 140.8125 -128.285156 140.8125 -122.328125 C 140.8125 -116.773438 139.375 -108.765625 136.5 -98.296875 L 117.09375 -31.734375 C 115.238281 -25.160156 114.3125 -20.640625 114.3125 -18.171875 C 114.3125 -16.328125 114.773438 -14.992188 115.703125 -14.171875 C 116.628906 -13.347656 117.601562 -12.9375 118.625 -12.9375 C 121.09375 -12.9375 124.894531 -15.609375 130.03125 -20.953125 C 135.164062 -26.296875 138.65625 -30.503906 140.5 -33.578125 L 145.125 -29.890625 C 138.757812 -21.054688 131.617188 -13.25 123.703125 -6.46875 C 115.796875 0.3125 108.351562 3.703125 101.375 3.703125 C 98.082031 3.703125 95.304688 2.421875 93.046875 -0.140625 C 90.796875 -2.710938 89.671875 -6.15625 89.671875 -10.46875 C 89.671875 -14.988281 90.796875 -21.050781 93.046875 -28.65625 L 114 -102.296875 C 114.207031 -102.910156 114.722656 -104.601562 115.546875 -107.375 C 116.367188 -110.15625 116.78125 -112.878906 116.78125 -115.546875 C 116.78125 -118.210938 116.0625 -120.265625 114.625 -121.703125 C 113.1875 -123.140625 111.644531 -123.859375 110 -123.859375 C 105.269531 -123.859375 98.4375 -119.851562 89.5 -111.84375 C 80.570312 -103.832031 71.894531 -93.769531 63.46875 -81.65625 C 56.28125 -71.59375 50.476562 -62.296875 46.0625 -53.765625 C 41.644531 -45.242188 37.691406 -34.921875 34.203125 -22.796875 C 31.535156 -13.960938 29.378906 -6.363281 27.734375 0 L 4 0 L 33.28125 -102.609375 C 33.476562 -103.222656 34.191406 -105.835938 35.421875 -110.453125 C 36.660156 -115.078125 37.28125 -118.421875 37.28125 -120.484375 C 37.28125 -122.941406 36.40625 -124.835938 34.65625 -126.171875 C 32.914062 -127.515625 30.609375 -128.1875 27.734375 -128.1875 C 24.859375 -128.1875 20.75 -127.976562 15.40625 -127.5625 L 15.40625 -133.109375 L 62.546875 -140.8125 L 68.09375 -140.8125 L 47.765625 -69.9375 Z M 48.375 -69.328125 "/></g></g></g><g fill="#1b263b" fill-opacity="1"><g transform="translate(889.728545, 224.35586)"><g><path d="M 99.828125 -140.8125 C 108.460938 -140.8125 115.707031 -138.65625 121.5625 -134.34375 C 127.414062 -130.03125 130.34375 -124.484375 130.34375 -117.703125 C 130.34375 -111.128906 127.257812 -103.628906 121.09375 -95.203125 C 114.925781 -86.785156 104.910156 -79.34375 91.046875 -72.875 C 77.179688 -66.40625 59.566406 -62.859375 38.203125 -62.234375 C 36.972656 -58.128906 36.359375 -53.097656 36.359375 -47.140625 C 36.359375 -34.609375 39.742188 -25.519531 46.515625 -19.875 C 53.296875 -14.226562 60.796875 -11.40625 69.015625 -11.40625 C 82.785156 -11.40625 96.753906 -18.285156 110.921875 -32.046875 L 114.9375 -28.34375 C 92.957031 -6.976562 71.695312 3.703125 51.15625 3.703125 C 42.726562 3.703125 35.378906 1.597656 29.109375 -2.609375 C 22.847656 -6.828125 18.125 -12.320312 14.9375 -19.09375 C 11.757812 -25.875 10.171875 -32.863281 10.171875 -40.0625 C 10.171875 -54.4375 14.328125 -69.53125 22.640625 -85.34375 C 30.960938 -101.164062 42.054688 -114.363281 55.921875 -124.9375 C 69.785156 -135.519531 84.421875 -140.8125 99.828125 -140.8125 Z M 40.0625 -68.09375 C 54.03125 -69.125 65.328125 -71.488281 73.953125 -75.1875 C 82.367188 -78.882812 89.195312 -83.660156 94.4375 -89.515625 C 99.675781 -95.367188 103.425781 -101.117188 105.6875 -106.765625 C 107.945312 -112.410156 109.078125 -117.082031 109.078125 -120.78125 C 109.078125 -124.269531 107.789062 -127.503906 105.21875 -130.484375 C 102.65625 -133.460938 99.007812 -134.953125 94.28125 -134.953125 C 86.070312 -134.953125 78.113281 -131.148438 70.40625 -123.546875 C 62.707031 -115.953125 56.132812 -106.914062 50.6875 -96.4375 C 45.238281 -85.96875 41.695312 -76.519531 40.0625 -68.09375 Z M 40.0625 -68.09375 "/></g></g></g></g></g></g><g transform="matrix(1, 0, 0, 1, 418, 174)"><g clip-path="url(#9a3893e235)"><g fill="#1b263b" fill-opacity="1"><g transform="translate(3.050356, 285.722552)"><g><path d="M 73.15625 2.828125 C 65.050781 2.828125 57.234375 2.164062 49.703125 0.84375 C 42.171875 -0.46875 35.25 -2.253906 28.9375 -4.515625 C 22.632812 -6.773438 17.128906 -9.695312 12.421875 -13.28125 L 22.03125 -37.84375 C 26.738281 -34.832031 31.914062 -32.242188 37.5625 -30.078125 C 43.207031 -27.910156 49.039062 -26.304688 55.0625 -25.265625 C 61.09375 -24.234375 66.9375 -23.71875 72.59375 -23.71875 C 82.375 -23.71875 89.664062 -25.082031 94.46875 -27.8125 C 99.269531 -30.550781 101.671875 -34.460938 101.671875 -39.546875 C 101.671875 -43.867188 100.210938 -47.160156 97.296875 -49.421875 C 94.378906 -51.679688 89.71875 -53.285156 83.3125 -54.234375 L 53.65625 -59.3125 C 41.226562 -61.382812 31.8125 -65.804688 25.40625 -72.578125 C 19.007812 -79.359375 15.8125 -87.832031 15.8125 -98 C 15.8125 -106.851562 18.257812 -114.570312 23.15625 -121.15625 C 28.050781 -127.75 35.113281 -132.925781 44.34375 -136.6875 C 53.570312 -140.457031 64.492188 -142.34375 77.109375 -142.34375 C 83.878906 -142.34375 90.609375 -141.726562 97.296875 -140.5 C 103.984375 -139.28125 110.195312 -137.492188 115.9375 -135.140625 C 121.6875 -132.785156 126.628906 -129.820312 130.765625 -126.25 L 120.59375 -101.671875 C 117.019531 -104.691406 112.785156 -107.234375 107.890625 -109.296875 C 102.992188 -111.367188 97.910156 -112.96875 92.640625 -114.09375 C 87.367188 -115.226562 82.285156 -115.796875 77.390625 -115.796875 C 67.597656 -115.796875 60.347656 -114.335938 55.640625 -111.421875 C 50.929688 -108.503906 48.578125 -104.503906 48.578125 -99.421875 C 48.578125 -95.273438 49.941406 -92.023438 52.671875 -89.671875 C 55.398438 -87.316406 59.6875 -85.671875 65.53125 -84.734375 L 94.609375 -79.640625 C 107.984375 -77.390625 117.960938 -73.109375 124.546875 -66.796875 C 131.140625 -60.484375 134.4375 -51.960938 134.4375 -41.234375 C 134.4375 -32.003906 131.894531 -24.09375 126.8125 -17.5 C 121.726562 -10.914062 114.617188 -5.878906 105.484375 -2.390625 C 96.359375 1.085938 85.582031 2.828125 73.15625 2.828125 Z M 73.15625 2.828125 "/></g></g></g><g fill="#1b263b" fill-opacity="1"><g transform="translate(125.906824, 285.722552)"><g><path d="M 84.734375 2.828125 C 70.046875 2.828125 57.285156 -0.132812 46.453125 -6.0625 C 35.628906 -12 27.25 -20.425781 21.3125 -31.34375 C 15.382812 -42.269531 12.421875 -55.078125 12.421875 -69.765625 C 12.421875 -84.640625 15.382812 -97.488281 21.3125 -108.3125 C 27.25 -119.144531 35.628906 -127.523438 46.453125 -133.453125 C 57.285156 -139.378906 70.046875 -142.34375 84.734375 -142.34375 C 99.609375 -142.34375 112.410156 -139.378906 123.140625 -133.453125 C 133.867188 -127.523438 142.195312 -119.097656 148.125 -108.171875 C 154.0625 -97.253906 157.03125 -84.453125 157.03125 -69.765625 C 157.03125 -55.078125 154.0625 -42.269531 148.125 -31.34375 C 142.195312 -20.425781 133.867188 -12 123.140625 -6.0625 C 112.410156 -0.132812 99.609375 2.828125 84.734375 2.828125 Z M 84.734375 -25.984375 C 95.835938 -25.984375 104.585938 -29.796875 110.984375 -37.421875 C 117.390625 -45.046875 120.59375 -55.921875 120.59375 -70.046875 C 120.59375 -84.171875 117.390625 -94.953125 110.984375 -102.390625 C 104.585938 -109.828125 95.835938 -113.546875 84.734375 -113.546875 C 73.804688 -113.546875 65.09375 -109.828125 58.59375 -102.390625 C 52.101562 -94.953125 48.859375 -84.171875 48.859375 -70.046875 C 48.859375 -55.921875 52.101562 -45.046875 58.59375 -37.421875 C 65.09375 -29.796875 73.804688 -25.984375 84.734375 -25.984375 Z M 84.734375 -25.984375 "/></g></g></g><g fill="#1b263b" fill-opacity="1"><g transform="translate(272.770027, 285.722552)"><g><path d="M 68.625 2.828125 C 52.4375 2.828125 40.289062 -1.546875 32.1875 -10.296875 C 24.09375 -19.054688 20.046875 -31.816406 20.046875 -48.578125 L 20.046875 -199.125 L 56.765625 -199.125 L 56.765625 -50.84375 C 56.765625 -45.570312 57.515625 -41.144531 59.015625 -37.5625 C 60.523438 -33.988281 62.785156 -31.257812 65.796875 -29.375 C 68.816406 -27.488281 72.492188 -26.546875 76.828125 -26.546875 C 79.273438 -26.546875 81.625 -26.6875 83.875 -26.96875 C 86.132812 -27.25 88.394531 -27.675781 90.65625 -28.25 L 91.234375 -0.28125 C 87.460938 0.65625 83.785156 1.40625 80.203125 1.96875 C 76.628906 2.539062 72.769531 2.828125 68.625 2.828125 Z M 68.625 2.828125 "/></g></g></g><g fill="#1b263b" fill-opacity="1"><g transform="translate(344.506255, 285.722552)"><g><path d="M 71.734375 2.828125 C 60.253906 2.828125 50.601562 0.660156 42.78125 -3.671875 C 34.96875 -8.003906 29.128906 -14.453125 25.265625 -23.015625 C 21.410156 -31.585938 19.484375 -42.367188 19.484375 -55.359375 L 19.484375 -139.53125 L 56.203125 -139.53125 L 56.203125 -55.640625 C 56.203125 -49.421875 57.097656 -44.097656 58.890625 -39.671875 C 60.679688 -35.253906 63.503906 -31.960938 67.359375 -29.796875 C 71.222656 -27.628906 76.070312 -26.546875 81.90625 -26.546875 C 88.3125 -26.546875 94.007812 -28.050781 99 -31.0625 C 103.988281 -34.082031 107.894531 -38.273438 110.71875 -43.640625 C 113.539062 -49.003906 114.953125 -55.078125 114.953125 -61.859375 L 114.953125 -139.53125 L 151.671875 -139.53125 L 151.671875 0 L 116.921875 0 L 116.921875 -29.09375 L 119.1875 -29.09375 C 114.851562 -18.925781 108.640625 -11.0625 100.546875 -5.5 C 92.453125 0.0507812 82.847656 2.828125 71.734375 2.828125 Z M 71.734375 2.828125 "/></g></g></g><g fill="#1b263b" fill-opacity="1"><g transform="translate(493.62892, 285.722552)"><g><path d="M 85.296875 2.828125 C 66.273438 2.828125 52.101562 -1.925781 42.78125 -11.4375 C 33.46875 -20.945312 28.8125 -34.738281 28.8125 -52.8125 L 28.8125 -111 L 1.984375 -111 L 1.984375 -139.53125 L 29.9375 -139.53125 L 29.9375 -179.90625 L 65.53125 -179.90625 L 65.53125 -139.53125 L 110.4375 -139.53125 L 110.4375 -111 L 65.53125 -111 L 65.53125 -54.515625 C 65.53125 -45.472656 67.597656 -38.738281 71.734375 -34.3125 C 75.878906 -29.882812 82.378906 -27.671875 91.234375 -27.671875 C 94.429688 -27.671875 97.582031 -28 100.6875 -28.65625 C 103.789062 -29.320312 106.945312 -30.125 110.15625 -31.0625 L 115.515625 -3.671875 C 111.554688 -1.597656 106.894531 0 101.53125 1.125 C 96.164062 2.257812 90.753906 2.828125 85.296875 2.828125 Z M 85.296875 2.828125 "/></g></g></g><g fill="#1b263b" fill-opacity="1"><g transform="translate(588.242127, 285.722552)"><g><path d="M 17.515625 -168.328125 L 17.515625 -204.484375 L 59.03125 -204.484375 L 59.03125 -168.328125 Z M 20.046875 0 L 20.046875 -139.53125 L 56.765625 -139.53125 L 56.765625 0 Z M 20.046875 0 "/></g></g></g><g fill="#1b263b" fill-opacity="1"><g transform="translate(642.467541, 285.722552)"><g><path d="M 84.734375 2.828125 C 70.046875 2.828125 57.285156 -0.132812 46.453125 -6.0625 C 35.628906 -12 27.25 -20.425781 21.3125 -31.34375 C 15.382812 -42.269531 12.421875 -55.078125 12.421875 -69.765625 C 12.421875 -84.640625 15.382812 -97.488281 21.3125 -108.3125 C 27.25 -119.144531 35.628906 -127.523438 46.453125 -133.453125 C 57.285156 -139.378906 70.046875 -142.34375 84.734375 -142.34375 C 99.609375 -142.34375 112.410156 -139.378906 123.140625 -133.453125 C 133.867188 -127.523438 142.195312 -119.097656 148.125 -108.171875 C 154.0625 -97.253906 157.03125 -84.453125 157.03125 -69.765625 C 157.03125 -55.078125 154.0625 -42.269531 148.125 -31.34375 C 142.195312 -20.425781 133.867188 -12 123.140625 -6.0625 C 112.410156 -0.132812 99.609375 2.828125 84.734375 2.828125 Z M 84.734375 -25.984375 C 95.835938 -25.984375 104.585938 -29.796875 110.984375 -37.421875 C 117.390625 -45.046875 120.59375 -55.921875 120.59375 -70.046875 C 120.59375 -84.171875 117.390625 -94.953125 110.984375 -102.390625 C 104.585938 -109.828125 95.835938 -113.546875 84.734375 -113.546875 C 73.804688 -113.546875 65.09375 -109.828125 58.59375 -102.390625 C 52.101562 -94.953125 48.859375 -84.171875 48.859375 -70.046875 C 48.859375 -55.921875 52.101562 -45.046875 58.59375 -37.421875 C 65.09375 -29.796875 73.804688 -25.984375 84.734375 -25.984375 Z M 84.734375 -25.984375 "/></g></g></g><g fill="#1b263b" fill-opacity="1"><g transform="translate(789.330744, 285.722552)"><g><path d="M 20.046875 0 L 20.046875 -139.53125 L 54.796875 -139.53125 L 54.796875 -111.28125 L 53.375 -111.28125 C 57.707031 -121.257812 64.296875 -128.929688 73.140625 -134.296875 C 81.992188 -139.660156 91.976562 -142.34375 103.09375 -142.34375 C 114.382812 -142.34375 123.796875 -140.222656 131.328125 -135.984375 C 138.859375 -131.753906 144.503906 -125.304688 148.265625 -116.640625 C 152.035156 -107.984375 153.921875 -97.066406 153.921875 -83.890625 L 153.921875 0 L 117.21875 0 L 117.21875 -82.1875 C 117.21875 -89.15625 116.320312 -94.898438 114.53125 -99.421875 C 112.738281 -103.941406 109.957031 -107.328125 106.1875 -109.578125 C 102.425781 -111.835938 97.535156 -112.96875 91.515625 -112.96875 C 84.734375 -112.96875 78.707031 -111.460938 73.4375 -108.453125 C 68.164062 -105.441406 64.066406 -101.207031 61.140625 -95.75 C 58.222656 -90.289062 56.765625 -84.078125 56.765625 -77.109375 L 56.765625 0 Z M 20.046875 0 "/></g></g></g><g fill="#1b263b" fill-opacity="1"><g transform="translate(940.148017, 285.722552)"><g><path d="M 73.15625 2.828125 C 65.050781 2.828125 57.234375 2.164062 49.703125 0.84375 C 42.171875 -0.46875 35.25 -2.253906 28.9375 -4.515625 C 22.632812 -6.773438 17.128906 -9.695312 12.421875 -13.28125 L 22.03125 -37.84375 C 26.738281 -34.832031 31.914062 -32.242188 37.5625 -30.078125 C 43.207031 -27.910156 49.039062 -26.304688 55.0625 -25.265625 C 61.09375 -24.234375 66.9375 -23.71875 72.59375 -23.71875 C 82.375 -23.71875 89.664062 -25.082031 94.46875 -27.8125 C 99.269531 -30.550781 101.671875 -34.460938 101.671875 -39.546875 C 101.671875 -43.867188 100.210938 -47.160156 97.296875 -49.421875 C 94.378906 -51.679688 89.71875 -53.285156 83.3125 -54.234375 L 53.65625 -59.3125 C 41.226562 -61.382812 31.8125 -65.804688 25.40625 -72.578125 C 19.007812 -79.359375 15.8125 -87.832031 15.8125 -98 C 15.8125 -106.851562 18.257812 -114.570312 23.15625 -121.15625 C 28.050781 -127.75 35.113281 -132.925781 44.34375 -136.6875 C 53.570312 -140.457031 64.492188 -142.34375 77.109375 -142.34375 C 83.878906 -142.34375 90.609375 -141.726562 97.296875 -140.5 C 103.984375 -139.28125 110.195312 -137.492188 115.9375 -135.140625 C 121.6875 -132.785156 126.628906 -129.820312 130.765625 -126.25 L 120.59375 -101.671875 C 117.019531 -104.691406 112.785156 -107.234375 107.890625 -109.296875 C 102.992188 -111.367188 97.910156 -112.96875 92.640625 -114.09375 C 87.367188 -115.226562 82.285156 -115.796875 77.390625 -115.796875 C 67.597656 -115.796875 60.347656 -114.335938 55.640625 -111.421875 C 50.929688 -108.503906 48.578125 -104.503906 48.578125 -99.421875 C 48.578125 -95.273438 49.941406 -92.023438 52.671875 -89.671875 C 55.398438 -87.316406 59.6875 -85.671875 65.53125 -84.734375 L 94.609375 -79.640625 C 107.984375 -77.390625 117.960938 -73.109375 124.546875 -66.796875 C 131.140625 -60.484375 134.4375 -51.960938 134.4375 -41.234375 C 134.4375 -32.003906 131.894531 -24.09375 126.8125 -17.5 C 121.726562 -10.914062 114.617188 -5.878906 105.484375 -2.390625 C 96.359375 1.085938 85.582031 2.828125 73.15625 2.828125 Z M 73.15625 2.828125 "/></g></g></g></g></g></svg>