<svg xmlns="http://www.w3.org/2000/svg" xmlns:xlink="http://www.w3.org/1999/xlink" width="1400" zoomAndPan="magnify" viewBox="0 0 1050 555.000006" height="740" preserveAspectRatio="xMidYMid meet" version="1.0"><defs><g/><clipPath id="66c3f9389e"><rect x="0" width="787" y="0" height="282"/></clipPath><clipPath id="05619c80d9"><path d="M 0.171875 16 L 249 16 L 249 377 L 0.171875 377 Z M 0.171875 16 " clip-rule="nonzero"/></clipPath><clipPath id="f65f05d347"><rect x="0" width="568" y="0" height="390"/></clipPath></defs><g transform="matrix(1, 0, 0, 1, 253, 224)"><g clip-path="url(#66c3f9389e)"><g fill="#1b263b" fill-opacity="1"><g transform="translate(2.168788, 208.434203)"><g><path d="M 53.3125 2.0625 C 47.40625 2.0625 41.707031 1.578125 36.21875 0.609375 C 30.738281 -0.347656 25.695312 -1.648438 21.09375 -3.296875 C 16.5 -4.941406 12.488281 -7.066406 9.0625 -9.671875 L 16.046875 -27.578125 C 19.484375 -25.378906 23.257812 -23.488281 27.375 -21.90625 C 31.488281 -20.332031 35.738281 -19.171875 40.125 -18.421875 C 44.519531 -17.671875 48.773438 -17.296875 52.890625 -17.296875 C 60.023438 -17.296875 65.34375 -18.289062 68.84375 -20.28125 C 72.34375 -22.269531 74.09375 -25.113281 74.09375 -28.8125 C 74.09375 -31.96875 73.03125 -34.367188 70.90625 -36.015625 C 68.78125 -37.660156 65.382812 -38.828125 60.71875 -39.515625 L 39.109375 -43.21875 C 30.046875 -44.726562 23.179688 -47.953125 18.515625 -52.890625 C 13.859375 -57.835938 11.53125 -64.015625 11.53125 -71.421875 C 11.53125 -77.867188 13.3125 -83.492188 16.875 -88.296875 C 20.445312 -93.097656 25.59375 -96.867188 32.3125 -99.609375 C 39.039062 -102.359375 47 -103.734375 56.1875 -103.734375 C 61.125 -103.734375 66.03125 -103.285156 70.90625 -102.390625 C 75.78125 -101.503906 80.304688 -100.203125 84.484375 -98.484375 C 88.671875 -96.773438 92.273438 -94.613281 95.296875 -92 L 87.890625 -74.09375 C 85.285156 -76.289062 82.195312 -78.144531 78.625 -79.65625 C 75.0625 -81.164062 71.359375 -82.332031 67.515625 -83.15625 C 63.671875 -83.976562 59.960938 -84.390625 56.390625 -84.390625 C 49.253906 -84.390625 43.972656 -83.328125 40.546875 -81.203125 C 37.117188 -79.078125 35.40625 -76.160156 35.40625 -72.453125 C 35.40625 -69.429688 36.398438 -67.0625 38.390625 -65.34375 C 40.378906 -63.632812 43.5 -62.4375 47.75 -61.75 L 68.953125 -58.046875 C 78.691406 -56.398438 85.960938 -53.273438 90.765625 -48.671875 C 95.566406 -44.078125 97.96875 -37.867188 97.96875 -30.046875 C 97.96875 -23.328125 96.113281 -17.566406 92.40625 -12.765625 C 88.707031 -7.960938 83.53125 -4.289062 76.875 -1.75 C 70.21875 0.789062 62.363281 2.0625 53.3125 2.0625 Z M 53.3125 2.0625 "/></g></g></g><g fill="#1b263b" fill-opacity="1"><g transform="translate(91.698087, 208.434203)"><g><path d="M 61.75 2.0625 C 51.039062 2.0625 41.742188 -0.0976562 33.859375 -4.421875 C 25.972656 -8.742188 19.867188 -14.882812 15.546875 -22.84375 C 11.222656 -30.800781 9.0625 -40.132812 9.0625 -50.84375 C 9.0625 -61.675781 11.222656 -71.035156 15.546875 -78.921875 C 19.867188 -86.816406 25.972656 -92.925781 33.859375 -97.25 C 41.742188 -101.570312 51.039062 -103.734375 61.75 -103.734375 C 72.59375 -103.734375 81.921875 -101.570312 89.734375 -97.25 C 97.554688 -92.925781 103.628906 -86.785156 107.953125 -78.828125 C 112.273438 -70.867188 114.4375 -61.539062 114.4375 -50.84375 C 114.4375 -40.132812 112.273438 -30.800781 107.953125 -22.84375 C 103.628906 -14.882812 97.554688 -8.742188 89.734375 -4.421875 C 81.921875 -0.0976562 72.59375 2.0625 61.75 2.0625 Z M 61.75 -18.9375 C 69.84375 -18.9375 76.222656 -21.710938 80.890625 -27.265625 C 85.554688 -32.828125 87.890625 -40.753906 87.890625 -51.046875 C 87.890625 -61.335938 85.554688 -69.191406 80.890625 -74.609375 C 76.222656 -80.035156 69.84375 -82.75 61.75 -82.75 C 53.789062 -82.75 47.441406 -80.035156 42.703125 -74.609375 C 37.972656 -69.191406 35.609375 -61.335938 35.609375 -51.046875 C 35.609375 -40.753906 37.972656 -32.828125 42.703125 -27.265625 C 47.441406 -21.710938 53.789062 -18.9375 61.75 -18.9375 Z M 61.75 -18.9375 "/></g></g></g><g fill="#1b263b" fill-opacity="1"><g transform="translate(198.721834, 208.434203)"><g><path d="M 50.015625 2.0625 C 38.210938 2.0625 29.359375 -1.125 23.453125 -7.5 C 17.554688 -13.882812 14.609375 -23.1875 14.609375 -35.40625 L 14.609375 -145.109375 L 41.375 -145.109375 L 41.375 -37.046875 C 41.375 -33.203125 41.921875 -29.976562 43.015625 -27.375 C 44.117188 -24.769531 45.765625 -22.78125 47.953125 -21.40625 C 50.148438 -20.03125 52.828125 -19.34375 55.984375 -19.34375 C 57.765625 -19.34375 59.476562 -19.445312 61.125 -19.65625 C 62.769531 -19.863281 64.421875 -20.171875 66.078125 -20.578125 L 66.484375 -0.203125 C 63.734375 0.484375 61.054688 1.03125 58.453125 1.4375 C 55.847656 1.851562 53.035156 2.0625 50.015625 2.0625 Z M 50.015625 2.0625 "/></g></g></g><g fill="#1b263b" fill-opacity="1"><g transform="translate(250.998237, 208.434203)"><g><path d="M 52.28125 2.0625 C 43.90625 2.0625 36.867188 0.484375 31.171875 -2.671875 C 25.484375 -5.828125 21.234375 -10.523438 18.421875 -16.765625 C 15.609375 -23.015625 14.203125 -30.875 14.203125 -40.34375 L 14.203125 -101.671875 L 40.953125 -101.671875 L 40.953125 -40.546875 C 40.953125 -36.015625 41.601562 -32.132812 42.90625 -28.90625 C 44.21875 -25.6875 46.28125 -23.285156 49.09375 -21.703125 C 51.90625 -20.128906 55.4375 -19.34375 59.6875 -19.34375 C 64.351562 -19.34375 68.503906 -20.441406 72.140625 -22.640625 C 75.773438 -24.835938 78.617188 -27.890625 80.671875 -31.796875 C 82.734375 -35.710938 83.765625 -40.140625 83.765625 -45.078125 L 83.765625 -101.671875 L 110.53125 -101.671875 L 110.53125 0 L 85.21875 0 L 85.21875 -21.203125 L 86.859375 -21.203125 C 83.703125 -13.785156 79.171875 -8.050781 73.265625 -4 C 67.367188 0.0390625 60.375 2.0625 52.28125 2.0625 Z M 52.28125 2.0625 "/></g></g></g><g fill="#1b263b" fill-opacity="1"><g transform="translate(359.668523, 208.434203)"><g><path d="M 62.15625 2.0625 C 48.300781 2.0625 37.976562 -1.398438 31.1875 -8.328125 C 24.394531 -15.265625 21 -25.316406 21 -38.484375 L 21 -80.890625 L 1.4375 -80.890625 L 1.4375 -101.671875 L 21.8125 -101.671875 L 21.8125 -131.109375 L 47.75 -131.109375 L 47.75 -101.671875 L 80.484375 -101.671875 L 80.484375 -80.890625 L 47.75 -80.890625 L 47.75 -39.71875 C 47.75 -33.132812 49.257812 -28.226562 52.28125 -25 C 55.300781 -21.78125 60.035156 -20.171875 66.484375 -20.171875 C 68.816406 -20.171875 71.113281 -20.410156 73.375 -20.890625 C 75.644531 -21.367188 77.941406 -21.953125 80.265625 -22.640625 L 84.1875 -2.671875 C 81.300781 -1.160156 77.898438 0.00390625 73.984375 0.828125 C 70.078125 1.648438 66.132812 2.0625 62.15625 2.0625 Z M 62.15625 2.0625 "/></g></g></g><g fill="#1b263b" fill-opacity="1"><g transform="translate(428.616087, 208.434203)"><g><path d="M 12.765625 -122.671875 L 12.765625 -149.015625 L 43.015625 -149.015625 L 43.015625 -122.671875 Z M 14.609375 0 L 14.609375 -101.671875 L 41.375 -101.671875 L 41.375 0 Z M 14.609375 0 "/></g></g></g><g fill="#1b263b" fill-opacity="1"><g transform="translate(468.131818, 208.434203)"><g><path d="M 61.75 2.0625 C 51.039062 2.0625 41.742188 -0.0976562 33.859375 -4.421875 C 25.972656 -8.742188 19.867188 -14.882812 15.546875 -22.84375 C 11.222656 -30.800781 9.0625 -40.132812 9.0625 -50.84375 C 9.0625 -61.675781 11.222656 -71.035156 15.546875 -78.921875 C 19.867188 -86.816406 25.972656 -92.925781 33.859375 -97.25 C 41.742188 -101.570312 51.039062 -103.734375 61.75 -103.734375 C 72.59375 -103.734375 81.921875 -101.570312 89.734375 -97.25 C 97.554688 -92.925781 103.628906 -86.785156 107.953125 -78.828125 C 112.273438 -70.867188 114.4375 -61.539062 114.4375 -50.84375 C 114.4375 -40.132812 112.273438 -30.800781 107.953125 -22.84375 C 103.628906 -14.882812 97.554688 -8.742188 89.734375 -4.421875 C 81.921875 -0.0976562 72.59375 2.0625 61.75 2.0625 Z M 61.75 -18.9375 C 69.84375 -18.9375 76.222656 -21.710938 80.890625 -27.265625 C 85.554688 -32.828125 87.890625 -40.753906 87.890625 -51.046875 C 87.890625 -61.335938 85.554688 -69.191406 80.890625 -74.609375 C 76.222656 -80.035156 69.84375 -82.75 61.75 -82.75 C 53.789062 -82.75 47.441406 -80.035156 42.703125 -74.609375 C 37.972656 -69.191406 35.609375 -61.335938 35.609375 -51.046875 C 35.609375 -40.753906 37.972656 -32.828125 42.703125 -27.265625 C 47.441406 -21.710938 53.789062 -18.9375 61.75 -18.9375 Z M 61.75 -18.9375 "/></g></g></g><g fill="#1b263b" fill-opacity="1"><g transform="translate(575.155565, 208.434203)"><g><path d="M 14.609375 0 L 14.609375 -101.671875 L 39.9375 -101.671875 L 39.9375 -81.09375 L 38.90625 -81.09375 C 42.0625 -88.363281 46.863281 -93.953125 53.3125 -97.859375 C 59.757812 -101.773438 67.03125 -103.734375 75.125 -103.734375 C 83.363281 -103.734375 90.222656 -102.1875 95.703125 -99.09375 C 101.191406 -96.007812 105.304688 -91.3125 108.046875 -85 C 110.796875 -78.6875 112.171875 -70.726562 112.171875 -61.125 L 112.171875 0 L 85.421875 0 L 85.421875 -59.890625 C 85.421875 -64.972656 84.769531 -69.160156 83.46875 -72.453125 C 82.164062 -75.742188 80.140625 -78.210938 77.390625 -79.859375 C 74.648438 -81.503906 71.082031 -82.328125 66.6875 -82.328125 C 61.75 -82.328125 57.359375 -81.226562 53.515625 -79.03125 C 49.671875 -76.84375 46.6875 -73.757812 44.5625 -69.78125 C 42.4375 -65.800781 41.375 -61.269531 41.375 -56.1875 L 41.375 0 Z M 14.609375 0 "/></g></g></g><g fill="#1b263b" fill-opacity="1"><g transform="translate(685.060766, 208.434203)"><g><path d="M 53.3125 2.0625 C 47.40625 2.0625 41.707031 1.578125 36.21875 0.609375 C 30.738281 -0.347656 25.695312 -1.648438 21.09375 -3.296875 C 16.5 -4.941406 12.488281 -7.066406 9.0625 -9.671875 L 16.046875 -27.578125 C 19.484375 -25.378906 23.257812 -23.488281 27.375 -21.90625 C 31.488281 -20.332031 35.738281 -19.171875 40.125 -18.421875 C 44.519531 -17.671875 48.773438 -17.296875 52.890625 -17.296875 C 60.023438 -17.296875 65.34375 -18.289062 68.84375 -20.28125 C 72.34375 -22.269531 74.09375 -25.113281 74.09375 -28.8125 C 74.09375 -31.96875 73.03125 -34.367188 70.90625 -36.015625 C 68.78125 -37.660156 65.382812 -38.828125 60.71875 -39.515625 L 39.109375 -43.21875 C 30.046875 -44.726562 23.179688 -47.953125 18.515625 -52.890625 C 13.859375 -57.835938 11.53125 -64.015625 11.53125 -71.421875 C 11.53125 -77.867188 13.3125 -83.492188 16.875 -88.296875 C 20.445312 -93.097656 25.59375 -96.867188 32.3125 -99.609375 C 39.039062 -102.359375 47 -103.734375 56.1875 -103.734375 C 61.125 -103.734375 66.03125 -103.285156 70.90625 -102.390625 C 75.78125 -101.503906 80.304688 -100.203125 84.484375 -98.484375 C 88.671875 -96.773438 92.273438 -94.613281 95.296875 -92 L 87.890625 -74.09375 C 85.285156 -76.289062 82.195312 -78.144531 78.625 -79.65625 C 75.0625 -81.164062 71.359375 -82.332031 67.515625 -83.15625 C 63.671875 -83.976562 59.960938 -84.390625 56.390625 -84.390625 C 49.253906 -84.390625 43.972656 -83.328125 40.546875 -81.203125 C 37.117188 -79.078125 35.40625 -76.160156 35.40625 -72.453125 C 35.40625 -69.429688 36.398438 -67.0625 38.390625 -65.34375 C 40.378906 -63.632812 43.5 -62.4375 47.75 -61.75 L 68.953125 -58.046875 C 78.691406 -56.398438 85.960938 -53.273438 90.765625 -48.671875 C 95.566406 -44.078125 97.96875 -37.867188 97.96875 -30.046875 C 97.96875 -23.328125 96.113281 -17.566406 92.40625 -12.765625 C 88.707031 -7.960938 83.53125 -4.289062 76.875 -1.75 C 70.21875 0.789062 62.363281 2.0625 53.3125 2.0625 Z M 53.3125 2.0625 "/></g></g></g></g></g><g transform="matrix(1, 0, 0, 1, 7, 0.000000000000062024)"><g clip-path="url(#f65f05d347)"><g clip-path="url(#05619c80d9)"><g fill="#1b263b" fill-opacity="1"><g transform="translate(0.343827, 266.655546)"><g><path d="M 247.5 40 C 247.863281 40.726562 248.085938 41.5 248.171875 42.3125 C 248.328125 43.445312 247.835938 44.203125 246.703125 44.578125 C 243.203125 45.835938 240.5625 44.898438 238.78125 41.765625 C 237.519531 39.523438 236.359375 37.207031 235.296875 34.8125 C 232.859375 29.082031 230.679688 23.238281 228.765625 17.28125 C 226.859375 11.332031 225.09375 5.367188 223.46875 -0.609375 C 222.050781 -5.890625 220.671875 -11.175781 219.328125 -16.46875 C 218.429688 -20.207031 217.492188 -23.96875 216.515625 -27.75 C 216.066406 -29.613281 215.523438 -30.769531 214.890625 -31.21875 C 214.265625 -31.664062 213.019531 -31.847656 211.15625 -31.765625 C 205.050781 -31.398438 198.972656 -31.035156 192.921875 -30.671875 C 186.535156 -30.304688 180.175781 -30 173.84375 -29.75 C 172.25 -29.632812 171.066406 -29.175781 170.296875 -28.375 C 169.523438 -27.582031 168.957031 -26.476562 168.59375 -25.0625 C 164.6875 -10.300781 160.09375 4.289062 154.8125 18.71875 C 151.238281 28.1875 147.304688 37.503906 143.015625 46.671875 C 138.722656 55.835938 133.796875 64.671875 128.234375 73.171875 C 123.234375 80.773438 117.296875 87.5625 110.421875 93.53125 C 103.597656 99.550781 95.851562 103.578125 87.1875 105.609375 C 75.28125 108.367188 63.960938 106.90625 53.234375 101.21875 C 46.804688 97.632812 41.132812 93.160156 36.21875 87.796875 C 19.757812 69.910156 8.273438 49.242188 1.765625 25.796875 C 0.585938 21.523438 0 17.15625 0 12.6875 L 0 12.375 C 0 11.476562 0.0390625 10.546875 0.125 9.578125 C 0.769531 -0.785156 5.644531 -8.53125 14.75 -13.65625 C 18.25 -15.53125 21.847656 -17.023438 25.546875 -18.140625 C 29.242188 -19.253906 33.023438 -20.078125 36.890625 -20.609375 C 48.429688 -22.398438 60.015625 -23.960938 71.640625 -25.296875 C 90.140625 -27.367188 108.695312 -29.300781 127.3125 -31.09375 C 133.8125 -31.707031 140.296875 -32.238281 146.765625 -32.6875 C 149.890625 -32.84375 152.976562 -33.066406 156.03125 -33.359375 C 158.144531 -33.429688 159.566406 -33.710938 160.296875 -34.203125 C 161.035156 -34.691406 161.625 -35.929688 162.0625 -37.921875 C 163.207031 -42.109375 164.328125 -46.359375 165.421875 -50.671875 C 172.898438 -83.554688 178.835938 -116.722656 183.234375 -150.171875 C 186.191406 -171.023438 188.523438 -191.921875 190.234375 -212.859375 C 190.679688 -219.441406 190.988281 -226.046875 191.15625 -232.671875 C 191.238281 -235.640625 191.378906 -238.585938 191.578125 -241.515625 C 191.578125 -241.960938 191.578125 -242.410156 191.578125 -242.859375 C 191.578125 -243.753906 191.617188 -244.609375 191.703125 -245.421875 C 191.785156 -247.128906 192.203125 -248.316406 192.953125 -248.984375 C 193.703125 -249.660156 194.929688 -250 196.640625 -250 C 198.347656 -250.070312 199.578125 -249.773438 200.328125 -249.109375 C 201.078125 -248.441406 201.453125 -247.210938 201.453125 -245.421875 C 201.453125 -239.441406 201.453125 -233.285156 201.453125 -226.953125 C 201.453125 -224.265625 201.453125 -221.519531 201.453125 -218.71875 C 201.816406 -201.644531 202.773438 -184.125 204.328125 -166.15625 C 205.992188 -146.03125 208.226562 -125.945312 211.03125 -105.90625 C 213.875 -85.09375 217.613281 -64.445312 222.25 -43.96875 C 222.457031 -42.988281 222.679688 -42.050781 222.921875 -41.15625 C 223.117188 -40.582031 223.300781 -39.992188 223.46875 -39.390625 C 224 -37.679688 225.160156 -36.929688 226.953125 -37.140625 C 230.804688 -37.210938 234.707031 -37.289062 238.65625 -37.375 C 240.519531 -37.539062 242.265625 -37.175781 243.890625 -36.28125 C 244.503906 -35.832031 244.8125 -35.160156 244.8125 -34.265625 C 244.726562 -33.816406 244.523438 -33.476562 244.203125 -33.25 C 243.878906 -33.03125 243.550781 -32.921875 243.21875 -32.921875 C 241.3125 -32.835938 239.382812 -32.796875 237.4375 -32.796875 C 236.539062 -32.722656 235.644531 -32.6875 234.75 -32.6875 C 234.21875 -32.6875 233.726562 -32.6875 233.28125 -32.6875 C 231.65625 -32.6875 230.09375 -32.644531 228.59375 -32.5625 C 226.269531 -32.351562 225.375 -31.09375 225.90625 -28.78125 C 226.269531 -27.28125 226.675781 -25.753906 227.125 -24.203125 C 228.46875 -18.148438 229.972656 -12.175781 231.640625 -6.28125 C 233.796875 1.601562 236.125 9.4375 238.625 17.21875 C 241.125 25.007812 244.082031 32.601562 247.5 40 Z M 158.28125 -24.078125 C 158.8125 -25.867188 158.875 -27.054688 158.46875 -27.640625 C 158.0625 -28.234375 156.960938 -28.429688 155.171875 -28.234375 C 147.691406 -27.703125 140.234375 -27.03125 132.796875 -26.21875 C 131.378906 -26.132812 129.957031 -26.015625 128.53125 -25.859375 C 111.863281 -24.234375 95.21875 -22.484375 78.59375 -20.609375 C 66.28125 -19.179688 53.941406 -17.578125 41.578125 -15.796875 C 35.929688 -15.054688 30.425781 -13.570312 25.0625 -11.34375 C 14.53125 -6.945312 9.347656 0.957031 9.515625 12.375 C 9.597656 16.238281 10.046875 20.082031 10.859375 23.90625 C 12.035156 28.738281 13.535156 33.441406 15.359375 38.015625 C 17.191406 42.585938 19.226562 47.050781 21.46875 51.40625 C 27.351562 63.675781 34.910156 74.769531 44.140625 84.6875 C 48.984375 89.976562 54.472656 94.3125 60.609375 97.6875 C 71.097656 103.164062 81.523438 103.082031 91.890625 97.4375 C 98.148438 94.144531 103.65625 89.859375 108.40625 84.578125 C 115.5625 76.609375 121.640625 67.925781 126.640625 58.53125 C 137.085938 38.78125 145.582031 18.171875 152.125 -3.296875 C 154.28125 -10.203125 156.332031 -17.128906 158.28125 -24.078125 Z M 213.28125 -37.140625 C 213.363281 -37.210938 213.40625 -37.289062 213.40625 -37.375 C 213.488281 -37.457031 213.5625 -37.546875 213.625 -37.640625 C 213.6875 -37.742188 213.65625 -37.796875 213.53125 -37.796875 C 205.601562 -75.523438 199.789062 -113.613281 196.09375 -152.0625 C 195.925781 -153.320312 195.703125 -154.582031 195.421875 -155.84375 C 195.335938 -156.09375 195.175781 -156.398438 194.9375 -156.765625 C 194.726562 -156.929688 194.546875 -157.195312 194.390625 -157.5625 C 193.941406 -154.34375 193.453125 -151.128906 192.921875 -147.921875 C 191.898438 -140.765625 190.820312 -133.648438 189.6875 -126.578125 C 188.144531 -116.296875 186.4375 -106.050781 184.5625 -95.84375 C 183.507812 -90.113281 182.394531 -84.40625 181.21875 -78.71875 C 180.320312 -74.320312 179.46875 -69.890625 178.65625 -65.421875 C 177.757812 -61.035156 176.742188 -56.6875 175.609375 -52.375 C 174.179688 -46.769531 172.960938 -41.097656 171.953125 -35.359375 C 174.304688 -35.078125 178.207031 -35.003906 183.65625 -35.140625 C 189.101562 -35.285156 194.660156 -35.539062 200.328125 -35.90625 C 206.003906 -36.28125 210.320312 -36.691406 213.28125 -37.140625 Z M 213.28125 -37.140625 "/></g></g></g></g><g fill="#1b263b" fill-opacity="1"><g transform="translate(241.577991, 266.655546)"><g><path d="M 44.015625 -28.40625 C 44.710938 -30.070312 45.46875 -30.90625 46.28125 -30.90625 C 47.09375 -30.90625 47.359375 -30.070312 47.078125 -28.40625 C 45.734375 -24.257812 44.125 -20.285156 42.25 -16.484375 C 40.382812 -12.691406 37.847656 -9.289062 34.640625 -6.28125 C 32.191406 -3.84375 29.28125 -2.273438 25.90625 -1.578125 C 21.320312 -0.929688 17.535156 -1.484375 14.546875 -3.234375 C 11.554688 -4.984375 9.1875 -7.492188 7.4375 -10.765625 C 5.6875 -14.035156 4.382812 -17.609375 3.53125 -21.484375 C 2.675781 -25.367188 2.128906 -29.140625 1.890625 -32.796875 C 1.242188 -39.710938 0.765625 -48.800781 0.453125 -60.0625 C 0.148438 -71.320312 0.257812 -83.226562 0.78125 -95.78125 C 1.3125 -108.34375 2.539062 -119.988281 4.46875 -130.71875 C 6.40625 -141.457031 9.242188 -149.773438 12.984375 -155.671875 C 15.140625 -158.554688 17.648438 -160.019531 20.515625 -160.0625 C 23.378906 -160.101562 25.929688 -158.78125 28.171875 -156.09375 C 29.671875 -154.019531 30.804688 -151.820312 31.578125 -149.5 C 32.359375 -147.1875 32.867188 -144.832031 33.109375 -142.4375 C 33.921875 -134.1875 33.816406 -125.476562 32.796875 -116.3125 C 31.785156 -107.144531 30.179688 -97.359375 27.984375 -86.953125 C 25.785156 -76.546875 23.160156 -67.378906 20.109375 -59.453125 C 17.066406 -51.523438 14.53125 -45.242188 12.5 -40.609375 C 11.40625 -38.734375 11 -35.910156 11.28125 -32.140625 C 11.644531 -28.023438 12.425781 -23.734375 13.625 -19.265625 C 14.820312 -14.796875 16.5 -11.257812 18.65625 -8.65625 C 20.6875 -6.5 22.960938 -5.828125 25.484375 -6.640625 C 28.003906 -7.453125 30.515625 -9.160156 33.015625 -11.765625 C 35.515625 -14.367188 37.71875 -17.203125 39.625 -20.265625 C 41.539062 -23.335938 43.003906 -26.050781 44.015625 -28.40625 Z M 11.53125 -90.796875 C 11.28125 -88.109375 11.039062 -84.050781 10.8125 -78.625 C 10.59375 -73.195312 10.382812 -67.679688 10.1875 -62.078125 C 10.019531 -55.816406 9.835938 -50.9375 9.640625 -47.4375 C 11.628906 -51.90625 13.941406 -58.40625 16.578125 -66.9375 C 19.222656 -75.476562 21.632812 -85.539062 23.8125 -97.125 C 25.988281 -108.71875 27.398438 -121.257812 28.046875 -134.75 C 27.679688 -142.632812 26.734375 -147.976562 25.203125 -150.78125 C 23.679688 -153.59375 22.023438 -153.835938 20.234375 -151.515625 C 18.453125 -149.203125 17.03125 -144.328125 15.96875 -136.890625 C 14.34375 -124.566406 13.082031 -112.226562 12.1875 -99.875 C 11.945312 -96.820312 11.726562 -93.796875 11.53125 -90.796875 Z M 11.53125 -90.796875 "/></g></g></g><g fill="#1b263b" fill-opacity="1"><g transform="translate(276.18622, 266.655546)"><g><path d="M 44.015625 -28.40625 C 44.710938 -30.070312 45.46875 -30.90625 46.28125 -30.90625 C 47.09375 -30.90625 47.359375 -30.070312 47.078125 -28.40625 C 45.734375 -24.257812 44.125 -20.285156 42.25 -16.484375 C 40.382812 -12.691406 37.847656 -9.289062 34.640625 -6.28125 C 32.191406 -3.84375 29.28125 -2.273438 25.90625 -1.578125 C 21.320312 -0.929688 17.535156 -1.484375 14.546875 -3.234375 C 11.554688 -4.984375 9.1875 -7.492188 7.4375 -10.765625 C 5.6875 -14.035156 4.382812 -17.609375 3.53125 -21.484375 C 2.675781 -25.367188 2.128906 -29.140625 1.890625 -32.796875 C 1.242188 -39.710938 0.765625 -48.800781 0.453125 -60.0625 C 0.148438 -71.320312 0.257812 -83.226562 0.78125 -95.78125 C 1.3125 -108.34375 2.539062 -119.988281 4.46875 -130.71875 C 6.40625 -141.457031 9.242188 -149.773438 12.984375 -155.671875 C 15.140625 -158.554688 17.648438 -160.019531 20.515625 -160.0625 C 23.378906 -160.101562 25.929688 -158.78125 28.171875 -156.09375 C 29.671875 -154.019531 30.804688 -151.820312 31.578125 -149.5 C 32.359375 -147.1875 32.867188 -144.832031 33.109375 -142.4375 C 33.921875 -134.1875 33.816406 -125.476562 32.796875 -116.3125 C 31.785156 -107.144531 30.179688 -97.359375 27.984375 -86.953125 C 25.785156 -76.546875 23.160156 -67.378906 20.109375 -59.453125 C 17.066406 -51.523438 14.53125 -45.242188 12.5 -40.609375 C 11.40625 -38.734375 11 -35.910156 11.28125 -32.140625 C 11.644531 -28.023438 12.425781 -23.734375 13.625 -19.265625 C 14.820312 -14.796875 16.5 -11.257812 18.65625 -8.65625 C 20.6875 -6.5 22.960938 -5.828125 25.484375 -6.640625 C 28.003906 -7.453125 30.515625 -9.160156 33.015625 -11.765625 C 35.515625 -14.367188 37.71875 -17.203125 39.625 -20.265625 C 41.539062 -23.335938 43.003906 -26.050781 44.015625 -28.40625 Z M 11.53125 -90.796875 C 11.28125 -88.109375 11.039062 -84.050781 10.8125 -78.625 C 10.59375 -73.195312 10.382812 -67.679688 10.1875 -62.078125 C 10.019531 -55.816406 9.835938 -50.9375 9.640625 -47.4375 C 11.628906 -51.90625 13.941406 -58.40625 16.578125 -66.9375 C 19.222656 -75.476562 21.632812 -85.539062 23.8125 -97.125 C 25.988281 -108.71875 27.398438 -121.257812 28.046875 -134.75 C 27.679688 -142.632812 26.734375 -147.976562 25.203125 -150.78125 C 23.679688 -153.59375 22.023438 -153.835938 20.234375 -151.515625 C 18.453125 -149.203125 17.03125 -144.328125 15.96875 -136.890625 C 14.34375 -124.566406 13.082031 -112.226562 12.1875 -99.875 C 11.945312 -96.820312 11.726562 -93.796875 11.53125 -90.796875 Z M 11.53125 -90.796875 "/></g></g></g><g fill="#1b263b" fill-opacity="1"><g transform="translate(310.794449, 266.655546)"><g/></g></g><g fill="#1b263b" fill-opacity="1"><g transform="translate(333.025871, 266.655546)"><g><path d="M 31.640625 -24.75 C 30.378906 -22.15625 28.234375 -19.269531 25.203125 -16.09375 C 22.179688 -12.925781 18.75 -10.914062 14.90625 -10.0625 C 11.0625 -9.207031 7.394531 -10.53125 3.90625 -14.03125 C 2.5625 -15.570312 1.570312 -17.347656 0.9375 -19.359375 C 0.3125 -21.367188 0.0820312 -23.347656 0.25 -25.296875 C 0.25 -25.828125 0.25 -26.5 0.25 -27.3125 C 0.25 -29.382812 0.335938 -31.78125 0.515625 -34.5 C 0.703125 -37.226562 1.109375 -39.691406 1.734375 -41.890625 C 2.367188 -44.085938 3.351562 -45.410156 4.6875 -45.859375 C 8.550781 -46.828125 10.644531 -45.484375 10.96875 -41.828125 C 10.96875 -40.648438 10.929688 -39.472656 10.859375 -38.296875 C 10.773438 -37.679688 10.734375 -37.109375 10.734375 -36.578125 C 10.648438 -34.878906 10.566406 -33.175781 10.484375 -31.46875 C 10.484375 -30.125 10.421875 -28.78125 10.296875 -27.4375 C 10.222656 -21.539062 11.546875 -18.035156 14.265625 -16.921875 C 16.992188 -15.804688 20.101562 -16.992188 23.59375 -20.484375 C 27.09375 -23.984375 29.378906 -26.890625 30.453125 -29.203125 C 31.535156 -31.523438 32.316406 -32.015625 32.796875 -30.671875 C 33.285156 -29.328125 32.898438 -27.351562 31.640625 -24.75 Z M 10.1875 -58.40625 C 9.65625 -57.96875 9.015625 -57.6875 8.265625 -57.5625 C 7.515625 -57.4375 6.851562 -57.5 6.28125 -57.75 C 5.832031 -58.113281 5.546875 -58.585938 5.421875 -59.171875 C 5.304688 -59.765625 5.25 -60.46875 5.25 -61.28125 C 5.25 -61.4375 5.285156 -61.597656 5.359375 -61.765625 C 5.441406 -62.492188 5.628906 -63.226562 5.921875 -63.96875 C 6.734375 -65.914062 8.414062 -66.804688 10.96875 -66.640625 C 11.863281 -66.523438 12.566406 -66.160156 13.078125 -65.546875 C 13.585938 -64.929688 13.703125 -64.21875 13.421875 -63.40625 C 12.804688 -61.414062 11.726562 -59.75 10.1875 -58.40625 Z M 10.1875 -58.40625 "/></g></g></g><g fill="#1b263b" fill-opacity="1"><g transform="translate(354.22081, 266.655546)"><g><path d="M 50.421875 -23.46875 C 53.554688 -28.425781 55.414062 -31.578125 56 -32.921875 C 56.59375 -34.265625 57.0625 -34.203125 57.40625 -32.734375 C 57.75 -31.273438 56.742188 -27.972656 54.390625 -22.828125 C 52.035156 -17.691406 49.109375 -13.726562 45.609375 -10.9375 C 42.109375 -8.15625 38.84375 -7.128906 35.8125 -7.859375 C 32.789062 -8.597656 30.628906 -10.703125 29.328125 -14.171875 C 28.023438 -17.648438 27.640625 -22.03125 28.171875 -27.3125 C 28.171875 -27.394531 28.210938 -27.617188 28.296875 -27.984375 C 28.367188 -28.878906 28.515625 -30.203125 28.734375 -31.953125 C 28.960938 -33.703125 29.128906 -35.507812 29.234375 -37.375 C 29.335938 -39.25 29.273438 -40.796875 29.046875 -42.015625 C 28.828125 -43.234375 28.269531 -43.660156 27.375 -43.296875 C 25.21875 -42.109375 23.113281 -39.796875 21.0625 -36.359375 C 19.007812 -32.929688 17.148438 -29.335938 15.484375 -25.578125 C 13.816406 -21.816406 12.640625 -18.78125 11.953125 -16.46875 C 11.671875 -15.726562 11.40625 -14.953125 11.15625 -14.140625 C 10.789062 -13.085938 10.382812 -12.03125 9.9375 -10.96875 C 8.757812 -7.925781 6.707031 -6.75 3.78125 -7.4375 C 2.15625 -7.800781 1.203125 -8.796875 0.921875 -10.421875 C 0.835938 -11.679688 0.796875 -12.882812 0.796875 -14.03125 C 0.796875 -14.757812 0.753906 -15.425781 0.671875 -16.03125 C 0.503906 -25.0625 0.28125 -34.148438 0 -43.296875 C 0.0820312 -44.347656 0.550781 -45.078125 1.40625 -45.484375 C 2.257812 -45.890625 3.273438 -46.09375 4.453125 -46.09375 C 5.347656 -46.09375 6.191406 -45.847656 6.984375 -45.359375 C 7.773438 -44.878906 8.269531 -43.863281 8.46875 -42.3125 C 8.550781 -41.78125 8.59375 -41.253906 8.59375 -40.734375 C 8.675781 -40.441406 8.71875 -40.175781 8.71875 -39.9375 C 8.882812 -38.675781 8.96875 -37.597656 8.96875 -36.703125 C 8.96875 -35.359375 9.054688 -34.441406 9.234375 -33.953125 C 9.421875 -33.472656 9.804688 -33.492188 10.390625 -34.015625 C 10.984375 -34.546875 11.953125 -35.804688 13.296875 -37.796875 C 15.609375 -41.378906 18.472656 -44.410156 21.890625 -46.890625 C 25.015625 -49.128906 28.445312 -50.0625 32.1875 -49.6875 C 35.40625 -49.363281 37.5625 -47.679688 38.65625 -44.640625 C 39.101562 -43.085938 39.328125 -41.53125 39.328125 -39.96875 C 39.328125 -38.40625 39.226562 -36.832031 39.03125 -35.25 C 38.945312 -33.613281 38.820312 -31.945312 38.65625 -30.25 C 38.53125 -29.71875 38.429688 -29.1875 38.359375 -28.65625 C 37.828125 -22.84375 38.007812 -18.953125 38.90625 -16.984375 C 39.800781 -15.015625 41.160156 -14.363281 42.984375 -15.03125 C 44.816406 -15.695312 47.296875 -18.507812 50.421875 -23.46875 Z M 50.421875 -23.46875 "/></g></g></g><g fill="#1b263b" fill-opacity="1"><g transform="translate(399.132916, 266.655546)"><g/></g></g><g fill="#1b263b" fill-opacity="1"><g transform="translate(421.364302, 266.655546)"><g><path d="M 46.828125 -33.359375 C 47.441406 -33.960938 47.765625 -33.21875 47.796875 -31.125 C 47.835938 -29.03125 45.9375 -26.101562 42.09375 -22.34375 C 38.257812 -18.582031 34.289062 -16.804688 30.1875 -17.015625 C 29.289062 -17.097656 28.523438 -17.023438 27.890625 -16.796875 C 27.265625 -16.578125 26.726562 -16.0625 26.28125 -15.25 C 25.832031 -14.507812 25.300781 -13.835938 24.6875 -13.234375 C 24.6875 -13.234375 24.648438 -13.191406 24.578125 -13.109375 C 22.054688 -10.421875 19.097656 -8.648438 15.703125 -7.796875 C 12.304688 -6.953125 9.082031 -7.21875 6.03125 -8.59375 C 2.988281 -9.976562 0.796875 -12.601562 -0.546875 -16.46875 C -1.523438 -19.957031 -1.609375 -23.429688 -0.796875 -26.890625 C -0.0976562 -29.941406 1.019531 -32.804688 2.5625 -35.484375 C 4.425781 -39.066406 6.851562 -41.597656 9.84375 -43.078125 C 12.832031 -44.554688 16.21875 -45.378906 20 -45.546875 C 25.601562 -45.828125 29.140625 -43.1875 30.609375 -37.625 C 31.503906 -34.40625 31.726562 -31.148438 31.28125 -27.859375 C 31.15625 -27.128906 31.015625 -26.359375 30.859375 -25.546875 C 30.691406 -25.015625 30.546875 -24.488281 30.421875 -23.96875 C 30.265625 -22.175781 31.039062 -21.363281 32.75 -21.53125 C 37.457031 -22.34375 42.148438 -26.285156 46.828125 -33.359375 Z M 13.65625 -12.5625 C 16.539062 -13.90625 18.550781 -16.179688 19.6875 -19.390625 C 14.894531 -22.441406 11.6875 -26.832031 10.0625 -32.5625 C 8.5625 -29.875 7.644531 -26.738281 7.3125 -23.15625 C 6.988281 -19.582031 7.34375 -16.628906 8.375 -14.296875 C 9.414062 -11.960938 11.175781 -11.382812 13.65625 -12.5625 Z M 21.890625 -25.734375 C 22.660156 -26.867188 23.113281 -28.269531 23.25 -29.9375 C 23.394531 -31.601562 23.316406 -33.257812 23.015625 -34.90625 C 22.710938 -36.550781 22.285156 -37.84375 21.734375 -38.78125 C 21.191406 -39.71875 20.613281 -40.003906 20 -39.640625 C 18.90625 -38.660156 18.296875 -37.253906 18.171875 -35.421875 C 18.046875 -33.597656 18.316406 -31.769531 18.984375 -29.9375 C 19.660156 -28.101562 20.628906 -26.703125 21.890625 -25.734375 Z M 21.890625 -25.734375 "/></g></g></g><g fill="#1b263b" fill-opacity="1"><g transform="translate(458.045514, 266.655546)"><g><path d="M 50.421875 -23.46875 C 53.554688 -28.425781 55.414062 -31.578125 56 -32.921875 C 56.59375 -34.265625 57.0625 -34.203125 57.40625 -32.734375 C 57.75 -31.273438 56.742188 -27.972656 54.390625 -22.828125 C 52.035156 -17.691406 49.109375 -13.726562 45.609375 -10.9375 C 42.109375 -8.15625 38.84375 -7.128906 35.8125 -7.859375 C 32.789062 -8.597656 30.628906 -10.703125 29.328125 -14.171875 C 28.023438 -17.648438 27.640625 -22.03125 28.171875 -27.3125 C 28.171875 -27.394531 28.210938 -27.617188 28.296875 -27.984375 C 28.367188 -28.878906 28.515625 -30.203125 28.734375 -31.953125 C 28.960938 -33.703125 29.128906 -35.507812 29.234375 -37.375 C 29.335938 -39.25 29.273438 -40.796875 29.046875 -42.015625 C 28.828125 -43.234375 28.269531 -43.660156 27.375 -43.296875 C 25.21875 -42.109375 23.113281 -39.796875 21.0625 -36.359375 C 19.007812 -32.929688 17.148438 -29.335938 15.484375 -25.578125 C 13.816406 -21.816406 12.640625 -18.78125 11.953125 -16.46875 C 11.671875 -15.726562 11.40625 -14.953125 11.15625 -14.140625 C 10.789062 -13.085938 10.382812 -12.03125 9.9375 -10.96875 C 8.757812 -7.925781 6.707031 -6.75 3.78125 -7.4375 C 2.15625 -7.800781 1.203125 -8.796875 0.921875 -10.421875 C 0.835938 -11.679688 0.796875 -12.882812 0.796875 -14.03125 C 0.796875 -14.757812 0.753906 -15.425781 0.671875 -16.03125 C 0.503906 -25.0625 0.28125 -34.148438 0 -43.296875 C 0.0820312 -44.347656 0.550781 -45.078125 1.40625 -45.484375 C 2.257812 -45.890625 3.273438 -46.09375 4.453125 -46.09375 C 5.347656 -46.09375 6.191406 -45.847656 6.984375 -45.359375 C 7.773438 -44.878906 8.269531 -43.863281 8.46875 -42.3125 C 8.550781 -41.78125 8.59375 -41.253906 8.59375 -40.734375 C 8.675781 -40.441406 8.71875 -40.175781 8.71875 -39.9375 C 8.882812 -38.675781 8.96875 -37.597656 8.96875 -36.703125 C 8.96875 -35.359375 9.054688 -34.441406 9.234375 -33.953125 C 9.421875 -33.472656 9.804688 -33.492188 10.390625 -34.015625 C 10.984375 -34.546875 11.953125 -35.804688 13.296875 -37.796875 C 15.609375 -41.378906 18.472656 -44.410156 21.890625 -46.890625 C 25.015625 -49.128906 28.445312 -50.0625 32.1875 -49.6875 C 35.40625 -49.363281 37.5625 -47.679688 38.65625 -44.640625 C 39.101562 -43.085938 39.328125 -41.53125 39.328125 -39.96875 C 39.328125 -38.40625 39.226562 -36.832031 39.03125 -35.25 C 38.945312 -33.613281 38.820312 -31.945312 38.65625 -30.25 C 38.53125 -29.71875 38.429688 -29.1875 38.359375 -28.65625 C 37.828125 -22.84375 38.007812 -18.953125 38.90625 -16.984375 C 39.800781 -15.015625 41.160156 -14.363281 42.984375 -15.03125 C 44.816406 -15.695312 47.296875 -18.507812 50.421875 -23.46875 Z M 50.421875 -23.46875 "/></g></g></g><g fill="#1b263b" fill-opacity="1"><g transform="translate(502.957621, 266.655546)"><g><path d="M 58.78125 -29.453125 C 59.675781 -29.984375 60.550781 -30.390625 61.40625 -30.671875 C 62.257812 -30.953125 62.816406 -30.929688 63.078125 -30.609375 C 63.335938 -30.285156 62.984375 -29.550781 62.015625 -28.40625 C 58.960938 -24.914062 55.3125 -21.71875 51.0625 -18.8125 C 46.8125 -15.90625 42.453125 -13.457031 37.984375 -11.46875 C 34.492188 -9.875 30.804688 -8.609375 26.921875 -7.671875 C 23.035156 -6.742188 19.191406 -6.539062 15.390625 -7.0625 C 11.585938 -7.59375 8.125 -9.285156 5 -12.140625 C 0.238281 -16.523438 -1.734375 -21.890625 -0.921875 -28.234375 C -0.222656 -33.273438 1.738281 -37.550781 4.96875 -41.0625 C 8.195312 -44.582031 12.269531 -46.972656 17.1875 -48.234375 C 21.300781 -49.128906 25.410156 -49.226562 29.515625 -48.53125 C 31.378906 -48.25 33.085938 -47.617188 34.640625 -46.640625 C 36.054688 -45.546875 36.832031 -44.265625 36.96875 -42.796875 C 37.113281 -41.335938 36.554688 -39.9375 35.296875 -38.59375 C 32.703125 -36.28125 29.695312 -34.898438 26.28125 -34.453125 C 22.457031 -33.796875 18.613281 -33.390625 14.75 -33.234375 C 12.882812 -33.234375 11.570312 -32.84375 10.8125 -32.0625 C 10.0625 -31.289062 9.628906 -29.972656 9.515625 -28.109375 C 8.898438 -23.023438 10.523438 -18.878906 14.390625 -15.671875 C 16.785156 -13.753906 19.703125 -12.9375 23.140625 -13.21875 C 26.578125 -13.507812 30.222656 -14.4375 34.078125 -16 C 37.941406 -17.570312 41.722656 -19.40625 45.421875 -21.5 C 49.117188 -23.59375 52.453125 -25.570312 55.421875 -27.4375 C 56.679688 -28.25 57.800781 -28.921875 58.78125 -29.453125 Z M 16.40625 -40.296875 C 16.40625 -40.222656 16.34375 -40.1875 16.21875 -40.1875 C 16.050781 -40.019531 15.835938 -39.820312 15.578125 -39.59375 C 15.316406 -39.375 15.070312 -39.148438 14.84375 -38.921875 C 14.625 -38.703125 14.515625 -38.550781 14.515625 -38.46875 C 14.597656 -38.1875 15.328125 -38.113281 16.703125 -38.25 C 18.085938 -38.394531 19.613281 -38.640625 21.28125 -38.984375 C 22.945312 -39.335938 24.335938 -39.804688 25.453125 -40.390625 C 26.578125 -40.984375 26.914062 -41.6875 26.46875 -42.5 C 26.257812 -42.738281 26.003906 -42.945312 25.703125 -43.125 C 25.398438 -43.3125 25.0625 -43.445312 24.6875 -43.53125 C 23.0625 -43.53125 21.578125 -43.210938 20.234375 -42.578125 C 18.898438 -41.953125 17.625 -41.191406 16.40625 -40.296875 Z M 16.40625 -40.296875 "/></g></g></g></g></g></svg>